<?xml version="1.0" encoding="UTF-8"?>
<svg version="1.1" xmlns="http://www.w3.org/2000/svg" width="200" height="200">
<path d="M0 0 C1.12921875 0.36222656 2.2584375 0.72445313 3.421875 1.09765625 C28.29389205 9.87426514 48.33331304 28.24728308 60.00244141 51.81445312 C70.62534904 75.08813622 73.05783854 102.58871209 65 127 C64.63777344 128.12921875 64.27554688 129.2584375 63.90234375 130.421875 C55.12573486 155.29389205 36.75271692 175.33331304 13.18554688 187.00244141 C-10.08813622 197.62534904 -37.58871209 200.05783854 -62 192 C-63.12921875 191.63777344 -64.2584375 191.27554688 -65.421875 190.90234375 C-90.29389205 182.12573486 -110.33331304 163.75271692 -122.00244141 140.18554688 C-132.62534904 116.91186378 -135.05783854 89.41128791 -127 65 C-126.63777344 63.87078125 -126.27554688 62.7415625 -125.90234375 61.578125 C-117.12573486 36.70610795 -98.75271692 16.66668696 -75.18554688 4.99755859 C-51.91186378 -5.62534904 -24.41128791 -8.05783854 0 0 Z " fill="#3B3B3B" transform="translate(131,4)"/>
<path d="M0 0 C1.07607513 -0.00788544 1.07607513 -0.00788544 2.17388916 -0.01593018 C4.54583492 -0.02913686 6.91710988 -0.02039017 9.2890625 -0.01025391 C10.93668751 -0.01227446 12.58431165 -0.01518574 14.23193359 -0.01895142 C17.68530796 -0.02337566 21.13844956 -0.01694062 24.59179688 -0.00292969 C29.0206861 0.01416241 33.44902996 0.00432175 37.87789917 -0.01364708 C41.28023394 -0.0244823 44.68243919 -0.02103981 48.08477783 -0.0132637 C49.71787582 -0.01126096 51.35098552 -0.01372357 52.98406982 -0.02070236 C55.26573888 -0.02831274 57.54652202 -0.0167195 59.828125 0 C61.7764624 0.00358017 61.7764624 0.00358017 63.76416016 0.00723267 C66.9140625 0.38818359 66.9140625 0.38818359 68.83267212 1.46957397 C70.5145824 4.45362978 70.2959903 7.06970349 70.30224609 10.47412109 C70.30750305 11.19150452 70.31276001 11.90888794 70.31817627 12.64801025 C70.33138295 15.01995602 70.32263626 17.39123098 70.3125 19.76318359 C70.31452055 21.4108086 70.31743184 23.05843274 70.32119751 24.70605469 C70.32562175 28.15942905 70.31918671 31.61257065 70.30517578 35.06591797 C70.28808368 39.4948072 70.29792435 43.92315105 70.31589317 48.35202026 C70.3267284 51.75435503 70.32328591 55.15656028 70.3155098 58.55889893 C70.31350706 60.19199691 70.31596966 61.82510662 70.32294846 63.45819092 C70.33055884 65.73985997 70.31896559 68.02064311 70.30224609 70.30224609 C70.29985931 71.6011377 70.29747253 72.9000293 70.29501343 74.23828125 C69.9140625 77.38818359 69.9140625 77.38818359 68.83267212 79.30679321 C65.84861631 80.9887035 63.2325426 80.7701114 59.828125 80.77636719 C59.11074158 80.78162415 58.39335815 80.7868811 57.65423584 80.79229736 C55.28229008 80.80550405 52.91101512 80.79675736 50.5390625 80.78662109 C48.89143749 80.78864165 47.24381335 80.79155293 45.59619141 80.7953186 C42.14281704 80.79974285 38.68967544 80.79330781 35.23632812 80.77929688 C30.8074389 80.76220477 26.37909504 80.77204544 21.95022583 80.79001427 C18.54789106 80.80084949 15.14568581 80.797407 11.74334717 80.78963089 C10.11024918 80.78762815 8.47713948 80.79009075 6.84405518 80.79706955 C4.56238612 80.80467993 2.28160298 80.79308669 0 80.77636719 C-1.9483374 80.77278702 -1.9483374 80.77278702 -3.93603516 80.76913452 C-7.0859375 80.38818359 -7.0859375 80.38818359 -9.00454712 79.30679321 C-10.6864574 76.32273741 -10.4678653 73.70666369 -10.47412109 70.30224609 C-10.47937805 69.58486267 -10.48463501 68.86747925 -10.49005127 68.12835693 C-10.50325795 65.75641117 -10.49451126 63.38513621 -10.484375 61.01318359 C-10.48639555 59.36555858 -10.48930684 57.71793445 -10.49307251 56.0703125 C-10.49749675 52.61693814 -10.49106171 49.16379653 -10.47705078 45.71044922 C-10.45995868 41.28155999 -10.46979935 36.85321614 -10.48776817 32.42434692 C-10.4986034 29.02201216 -10.49516091 25.61980691 -10.4873848 22.21746826 C-10.48538206 20.58437028 -10.48784466 18.95126057 -10.49482346 17.31817627 C-10.50243384 15.03650722 -10.49084059 12.75572408 -10.47412109 10.47412109 C-10.47173431 9.17522949 -10.46934753 7.87633789 -10.46688843 6.53808594 C-10.0859375 3.38818359 -10.0859375 3.38818359 -9.00454712 1.46957397 C-6.02049131 -0.21233631 -3.4044176 0.00625579 0 0 Z " fill="#FEFEFE" transform="translate(60.0859375,49.61181640625)"/>
<path d="M0 0 C2.77141717 -0.08089542 5.54047819 -0.14044062 8.3125 -0.1875 C9.09818359 -0.21263672 9.88386719 -0.23777344 10.69335938 -0.26367188 C11.45068359 -0.27333984 12.20800781 -0.28300781 12.98828125 -0.29296875 C14.03302612 -0.31653442 14.03302612 -0.31653442 15.09887695 -0.34057617 C17 0 17 0 18.72647095 1.07543945 C20.6814755 4.02984761 20.38172725 6.57237774 20.38818359 10.0859375 C20.39344055 10.80332092 20.39869751 11.52070435 20.40411377 12.25982666 C20.41732045 14.63177242 20.40857376 17.00304738 20.3984375 19.375 C20.40045805 21.02262501 20.40336934 22.67024915 20.40713501 24.31787109 C20.41155925 27.77124546 20.40512421 31.22438706 20.39111328 34.67773438 C20.37402118 39.1066236 20.38386185 43.53496746 20.40183067 47.96383667 C20.4126659 51.36617144 20.40922341 54.76837669 20.4014473 58.17071533 C20.39944456 59.80381332 20.40190716 61.43692302 20.40888596 63.07000732 C20.41649634 65.35167638 20.40490309 67.63245952 20.38818359 69.9140625 C20.38579681 71.2129541 20.38341003 72.5118457 20.38095093 73.85009766 C20 77 20 77 18.92533875 78.91960144 C15.90883237 80.61230572 13.24259634 80.37395337 9.80639648 80.37231445 C9.0776532 80.37596512 8.34890991 80.37961578 7.5980835 80.38337708 C5.18885001 80.39148444 2.78028865 80.37787276 0.37109375 80.36328125 C-1.30134582 80.36276272 -2.97378601 80.36328015 -4.64622498 80.36479187 C-8.15087993 80.36470214 -11.65530487 80.35427066 -15.15991211 80.33618164 C-19.65831165 80.31347685 -24.15637554 80.31295343 -28.65481663 80.31969929 C-32.10771177 80.32303596 -35.56053 80.3164152 -39.01341057 80.30657005 C-40.67245011 80.30271385 -42.33149819 80.30157157 -43.99054146 80.3031559 C-46.30579145 80.30352559 -48.62060622 80.29093454 -50.93579102 80.2746582 C-52.25466812 80.27005081 -53.57354523 80.26544342 -54.93238831 80.26069641 C-58 80 -58 80 -60 78 C-60.22705078 76.12060547 -60.22705078 76.12060547 -60.1953125 73.8671875 C-60.18886719 73.06152344 -60.18242188 72.25585938 -60.17578125 71.42578125 C-60.15902344 70.58402344 -60.14226562 69.74226563 -60.125 68.875 C-60.11597656 68.02550781 -60.10695313 67.17601562 -60.09765625 66.30078125 C-60.07405647 64.20040116 -60.03818483 62.10016556 -60 60 C-59.29034088 59.99191315 -58.58068176 59.98382629 -57.84951782 59.97549438 C-51.16885663 59.89762497 -44.4883925 59.81035789 -37.80799294 59.71247292 C-34.37333864 59.66247962 -30.93871555 59.61615022 -27.50390625 59.578125 C-23.55711312 59.5342726 -19.61063634 59.47460852 -15.6640625 59.4140625 C-14.42757965 59.40251129 -13.1910968 59.39096008 -11.91714478 59.37905884 C-10.77611298 59.35918915 -9.63508118 59.33931946 -8.45947266 59.31884766 C-6.94723618 59.29886215 -6.94723618 59.29886215 -5.40444946 59.2784729 C-2.81698676 59.23102768 -2.81698676 59.23102768 -1 57 C-0.6682747 54.49310171 -0.6682747 54.49310171 -0.68115234 51.54052734 C-0.66128265 50.39949554 -0.64141296 49.25846375 -0.62094116 48.08285522 C-0.60938995 46.84637238 -0.59783875 45.60988953 -0.5859375 44.3359375 C-0.56657135 43.07359283 -0.5472052 41.81124817 -0.5272522 40.51065063 C-0.47750955 37.15365788 -0.43627428 33.79677685 -0.39910889 30.43963623 C-0.35911153 27.01434336 -0.30799981 23.58921854 -0.2578125 20.1640625 C-0.1615994 13.44281619 -0.07659418 6.72149695 0 0 Z " fill="#6A6A6A" transform="translate(130,70)"/>
<path d="M0 0 C2.77141717 -0.08089542 5.54047819 -0.14044062 8.3125 -0.1875 C9.09818359 -0.21263672 9.88386719 -0.23777344 10.69335938 -0.26367188 C11.45068359 -0.27333984 12.20800781 -0.28300781 12.98828125 -0.29296875 C14.03302612 -0.31653442 14.03302612 -0.31653442 15.09887695 -0.34057617 C17.73048711 0.13086292 18.41705347 0.83572144 20 3 C20.38095093 6.14990234 20.38095093 6.14990234 20.38818359 10.0859375 C20.39344055 10.80332092 20.39869751 11.52070435 20.40411377 12.25982666 C20.41732045 14.63177242 20.40857376 17.00304738 20.3984375 19.375 C20.40045805 21.02262501 20.40336934 22.67024915 20.40713501 24.31787109 C20.41155925 27.77124546 20.40512421 31.22438706 20.39111328 34.67773438 C20.37402118 39.1066236 20.38386185 43.53496746 20.40183067 47.96383667 C20.4126659 51.36617144 20.40922341 54.76837669 20.4014473 58.17071533 C20.39944456 59.80381332 20.40190716 61.43692302 20.40888596 63.07000732 C20.41649634 65.35167638 20.40490309 67.63245952 20.38818359 69.9140625 C20.38579681 71.2129541 20.38341003 72.5118457 20.38095093 73.85009766 C20 77 20 77 18.70620728 78.93115234 C15.92843376 80.67127897 13.17971981 80.17998414 10 80 C3.07598911 52.96843035 -1.2562 27.97598812 0 0 Z " fill="#A5A5A5" transform="translate(130,70)"/>
<path d="M0 0 C0.66 0.33 1.32 0.66 2 1 C-3.28 6.28 -8.56 11.56 -14 17 C-14.66 16.67 -15.32 16.34 -16 16 C-10.96679794 10.22494276 -5.96260189 4.82082706 0 0 Z " fill="#848484" transform="translate(38,20)"/>
</svg>
