<?xml version="1.0" encoding="UTF-8"?>
<svg version="1.1" xmlns="http://www.w3.org/2000/svg" width="100" height="100">
<path d="M0 0 C11.61044611 7.87971198 19.15935154 19.2066008 22.3125 32.875 C23.89717002 49.02312243 21.49670209 62.85642305 11.3125 75.875 C2.63554281 85.40912627 -9.20905927 92.57459012 -22.32421875 93.2109375 C-38.27522126 93.49821567 -51.00429952 90.68762883 -63.1640625 79.62109375 C-73.96142781 68.37233356 -78.11642811 55.7894671 -78.05102539 40.50610352 C-77.76224063 26.46859694 -72.13689804 14.79262043 -62 5.0625 C-44.23015437 -10.05270406 -19.90521865 -11.59766872 0 0 Z " fill="#727CF5" transform="translate(77.6875,7.125)"/>
<path d="M0 0 C1.77734375 1.0703125 1.77734375 1.0703125 3.77734375 3.0703125 C2.45734375 5.3803125 1.13734375 7.6903125 -0.22265625 10.0703125 C-0.79113281 9.85375 -1.35960937 9.6371875 -1.9453125 9.4140625 C-8.40618348 7.08426595 -13.2476776 5.83928685 -19.84765625 8.5703125 C-23.93828509 11.11887584 -26.01999255 14.88829662 -28.22265625 19.0703125 C-26.57265625 19.0703125 -24.92265625 19.0703125 -23.22265625 19.0703125 C-24.12788838 23.2705896 -26.12547719 26.64997711 -28.28515625 30.3203125 C-28.85073242 31.29484375 -28.85073242 31.29484375 -29.42773438 32.2890625 C-30.3549974 33.88536341 -31.28824081 35.47818779 -32.22265625 37.0703125 C-32.88265625 37.0703125 -33.54265625 37.0703125 -34.22265625 37.0703125 C-35.36767578 35.63330078 -35.36767578 35.63330078 -36.60546875 33.640625 C-37.27255859 32.57134766 -37.27255859 32.57134766 -37.953125 31.48046875 C-38.41332031 30.72636719 -38.87351562 29.97226562 -39.34765625 29.1953125 C-39.81558594 28.44894531 -40.28351562 27.70257813 -40.765625 26.93359375 C-44.22265625 21.33985514 -44.22265625 21.33985514 -44.22265625 19.0703125 C-41.91265625 19.0703125 -39.60265625 19.0703125 -37.22265625 19.0703125 C-37.18140625 18.0803125 -37.14015625 17.0903125 -37.09765625 16.0703125 C-36.26949795 10.38822637 -32.68283091 6.2114755 -28.4453125 2.5234375 C-19.46905023 -4.1547445 -10.07935835 -4.9212057 0 0 Z " fill="#F9F9FE" transform="translate(62.22265625,26.9296875)"/>
<path d="M0 0 C0.66 0 1.32 0 2 0 C3.63863397 2.43133054 5.14921334 4.84771535 6.625 7.375 C7.25535156 8.42300781 7.25535156 8.42300781 7.8984375 9.4921875 C11 14.72859172 11 14.72859172 11 17 C9.35 17.33 7.7 17.66 6 18 C5.86464844 18.556875 5.72929688 19.11375 5.58984375 19.6875 C3.22262614 28.07907379 -1.12544399 33.684671 -8.75 38 C-15.17270446 40.87075426 -21.20125857 41.18488187 -27.91796875 39.08984375 C-30.32852 38.14126294 -32.67067119 37.13182137 -35 36 C-34.38550003 32.66177043 -33.65439171 29.97790508 -32 27 C-26.125 28.875 -26.125 28.875 -25 30 C-19.33191981 30.62050562 -14.83076017 30.25795453 -10 27 C-7.07371374 23.91114228 -5.37674022 21.01549231 -4 17 C-5.65 17 -7.3 17 -9 17 C-7.69289187 13.42597488 -6.11587706 10.49002567 -3.9375 7.375 C-2.16012171 4.82843844 -0.98934061 2.96802184 0 0 Z " fill="#FAFBFE" transform="translate(70,36)"/>
</svg>
