<?xml version="1.0" encoding="UTF-8"?>
<svg version="1.1" xmlns="http://www.w3.org/2000/svg" width="200" height="200">
<path d="M0 0 C66 0 132 0 200 0 C200 66 200 132 200 200 C134 200 68 200 0 200 C0 134 0 68 0 0 Z " fill="#DD6491" transform="translate(0,0)"/>
<path d="M0 0 C1.48102089 1.07354425 2.93983531 2.17838252 4.375 3.3125 C5.42880859 4.14201172 5.42880859 4.14201172 6.50390625 4.98828125 C13.57793313 11.25691607 17.73351454 19.08861327 18.69955444 28.46142578 C19.14917014 36.80732133 19.04244593 45.15426415 18.90356445 53.50738525 C18.86516411 56.27015895 18.85724546 59.03266829 18.8501358 61.79567337 C18.83985806 65.09827478 18.81081242 68.40064751 18.78125 71.703125 C18.76850037 73.55759247 18.76850037 73.55759247 18.75549316 75.44952393 C18.73627808 76.58540955 18.71706299 77.72129517 18.69726562 78.89160156 C18.67678162 80.39379242 18.67678162 80.39379242 18.65588379 81.92633057 C18.375 84.3125 18.375 84.3125 16.375 86.3125 C12.875 86.625 12.875 86.625 9.375 86.3125 C7.15610664 82.98415996 7.11761984 81.90123745 7.08789062 78.01831055 C7.07447632 76.93676193 7.06106201 75.85521332 7.04724121 74.7408905 C7.03932556 72.98776299 7.03932556 72.98776299 7.03125 71.19921875 C7.0166272 69.99691116 7.00200439 68.79460358 6.98693848 67.55586243 C6.94035318 63.70394215 6.90621032 59.85207374 6.875 56 C6.83384336 50.94121567 6.78012729 45.8827936 6.71875 40.82421875 C6.71083435 39.08020027 6.71083435 39.08020027 6.70275879 37.3009491 C6.58424307 27.66189315 4.64816052 20.78251352 -1.625 13.3125 C-9.36628803 7.01525993 -16.88021219 6.68154252 -26.625 7.3125 C-33.3700014 8.61727076 -38.76948909 12.52294347 -42.87890625 17.9765625 C-48.18217287 26.54789379 -47.92758932 35.73625127 -47.96052551 45.43131638 C-47.96887915 47.81021528 -47.98943681 50.18874207 -48.01306152 52.5675354 C-48.06919781 58.46661475 -48.10478496 64.36578357 -48.14068604 70.26501465 C-48.17188935 75.26917206 -48.21100881 80.27314252 -48.26094055 85.2771492 C-48.28102911 87.62264727 -48.28932789 89.96800192 -48.29724121 92.31356812 C-48.3102059 93.74339328 -48.32372506 95.17321357 -48.33789062 96.60302734 C-48.34518188 97.85352875 -48.35247314 99.10403015 -48.35998535 100.39242554 C-48.625 103.3125 -48.625 103.3125 -50.625 105.3125 C-53.625 105.5625 -53.625 105.5625 -56.625 105.3125 C-59.44466478 102.49283522 -58.9278752 99.79946798 -58.93139648 96.02392578 C-58.93972 95.27237717 -58.94804352 94.52082855 -58.95661926 93.74650574 C-58.98079903 91.25022241 -58.98950584 88.75420072 -58.99609375 86.2578125 C-59.005062 84.51821821 -59.01418388 82.7786247 -59.02345276 81.03903198 C-59.03997243 77.38212207 -59.04764688 73.72530394 -59.05053711 70.06835938 C-59.05588965 65.41033555 -59.09342558 60.75319196 -59.13928127 56.09541512 C-59.16923223 52.49542211 -59.17626473 48.89563509 -59.17726326 45.29552841 C-59.18143864 43.58051445 -59.19376368 41.86549832 -59.21478081 40.15060806 C-59.36783332 26.56778956 -57.73537324 15.51334621 -47.85546875 5.28125 C-34.25868201 -6.72011693 -15.69792996 -9.86496626 0 0 Z " fill="#FEFAFD" transform="translate(118.625,28.6875)"/>
<path d="M0 0 C3.0625 0.25 3.0625 0.25 6.0625 2.25 C6.38803043 4.99792717 6.52749208 7.53205879 6.5390625 10.28515625 C6.55464203 11.0790123 6.57022156 11.87286835 6.58627319 12.69078064 C6.6338905 15.23134365 6.6615899 17.77163055 6.6875 20.3125 C6.72393884 22.85674595 6.76451176 25.40083358 6.81015015 27.94493103 C6.83746291 29.52960485 6.8587765 31.11439498 6.87368774 32.69923401 C6.59464344 36.27138217 6.59464344 36.27138217 8.0625 39.25 C11.02067107 39.50005386 11.02067107 39.50005386 14.0625 39.25 C16.54583013 36.76666987 16.36111185 35.74113322 16.5625 32.3125 C16.77965529 28.62628895 16.94339579 27.42865632 19.0625 24.25 C22.10671933 23.86137626 24.13851492 23.61613767 26.72964478 25.39367676 C28.64447131 28.0605358 28.44362377 30.06221132 28.45068359 33.32617188 C28.46014008 34.57756958 28.46959656 35.82896729 28.4793396 37.11828613 C28.4739699 38.48511064 28.46781695 39.85193226 28.4609375 41.21875 C28.46295843 42.61975252 28.46587002 44.02075401 28.46963501 45.42175293 C28.47405753 48.35727967 28.46762996 51.29253246 28.45361328 54.22802734 C28.43652101 57.99107416 28.44636264 61.75347911 28.46433067 65.51650238 C28.47517069 68.40928993 28.47172126 71.30192527 28.4639473 74.19471741 C28.46194587 75.58219987 28.46440258 76.96969614 28.47138596 78.35716248 C28.47900305 80.29604834 28.46533494 82.23498265 28.45068359 84.17382812 C28.44829681 85.27730591 28.44591003 86.38078369 28.44345093 87.5177002 C28.0625 90.25 28.0625 90.25 26.69448853 92.10241699 C25.0625 93.25 25.0625 93.25 22.5625 93.6875 C20.0625 93.25 20.0625 93.25 18.43383789 91.78955078 C16.38137659 87.98864239 16.62167505 84.43619606 16.62109375 80.1796875 C16.60788589 79.30224884 16.59467804 78.42481018 16.58106995 77.52078247 C16.54020988 74.72215563 16.51850524 71.92385755 16.5 69.125 C16.47623746 66.31910046 16.44818138 63.51351166 16.40821838 60.70779419 C16.38380155 58.96284832 16.3689917 57.21773693 16.36460876 55.47262573 C16.51434628 50.88347744 16.51434628 50.88347744 14.0625 47.25 C11.02067107 46.99994614 11.02067107 46.99994614 8.0625 47.25 C5.81495453 49.49754547 6.76043232 55.78206857 6.72070312 58.9921875 C6.50819654 64.76445949 6.50819654 64.76445949 4.18359375 67.296875 C1.36278395 68.56442121 -0.06152116 68.30957115 -2.9375 67.25 C-5.26530128 63.75829808 -5.19026014 62.37489203 -5.19628906 58.24975586 C-5.20259338 57.01515121 -5.20889771 55.78054657 -5.21539307 54.50852966 C-5.21181366 53.16063291 -5.2077118 51.81273745 -5.203125 50.46484375 C-5.20447217 49.0838667 -5.20641314 47.7028901 -5.20892334 46.32191467 C-5.21187118 43.42932617 -5.2075873 40.53686125 -5.19824219 37.64428711 C-5.18683705 33.93282985 -5.19341578 30.22166151 -5.20538712 26.51021481 C-5.21260584 23.65952874 -5.21031794 20.80891145 -5.20513153 17.95822334 C-5.20379562 16.5894524 -5.20544073 15.22067524 -5.21009064 13.85191154 C-5.21515694 11.94155874 -5.20606887 10.03118409 -5.19628906 8.12084961 C-5.19469788 7.03291611 -5.19310669 5.9449826 -5.19146729 4.82408142 C-4.81284005 0.98651108 -3.78848866 0.32242457 0 0 Z " fill="#FEF8FA" transform="translate(86.9375,82.75)"/>
<path d="M0 0 C12.21 0 24.42 0 37 0 C37 11.88 37 23.76 37 36 C36.67 36 36.34 36 36 36 C35.773125 34.72125 35.54625 33.4425 35.3125 32.125 C33.7877302 25.24175346 31.00522484 18.99063235 26 14 C26 13.34 26 12.68 26 12 C25.484375 11.773125 24.96875 11.54625 24.4375 11.3125 C22.33361949 10.17964126 20.59240168 8.98688594 18.6875 7.5625 C12.52227685 3.12878633 7.4948257 1.60553549 0 2 C0 1.34 0 0.68 0 0 Z " fill="#FDF8FE" transform="translate(163,0)"/>
<path d="M0 0 C0.33 0 0.66 0 1 0 C1 11.88 1 23.76 1 36 C-10.88 36 -22.76 36 -35 36 C-35 35.67 -35 35.34 -35 35 C-33.081875 34.6596875 -33.081875 34.6596875 -31.125 34.3125 C-24.24175346 32.7877302 -17.99063235 30.00522484 -13 25 C-12.34 25 -11.68 25 -11 25 C-10.773125 24.484375 -10.54625 23.96875 -10.3125 23.4375 C-9.17964126 21.33361949 -7.98688594 19.59240168 -6.5625 17.6875 C-2.56149615 12.15218789 -0.6938572 6.79980059 0 0 Z " fill="#FEF8F6" transform="translate(199,164)"/>
<path d="M0 0 C0.33 0 0.66 0 1 0 C1.226875 1.27875 1.45375 2.5575 1.6875 3.875 C3.91497235 13.83587988 8.93716597 22.33822184 17.375 28.1875 C23.03763933 31.77477732 28.2558424 34.17754176 35 35 C35 35.33 35 35.66 35 36 C23.45 36 11.9 36 0 36 C0 24.12 0 12.24 0 0 Z " fill="#FEF8F6" transform="translate(0,164)"/>
<path d="M0 0 C11.88 0 23.76 0 36 0 C36 0.33 36 0.66 36 1 C34.72125 1.226875 33.4425 1.45375 32.125 1.6875 C22.16412012 3.91497235 13.66177816 8.93716597 7.8125 17.375 C3.98020377 23.43444221 1.73930901 28.75477171 1 36 C0.67 36 0.34 36 0 36 C0 24.12 0 12.24 0 0 Z " fill="#FDF9FE" transform="translate(0,0)"/>
<path d="M0 0 C1.62915039 1.14257812 1.62915039 1.14257812 3 3 C3.65168902 7.4700748 3.46311084 11.98783649 3.4375 16.5 C3.45748047 17.74910156 3.47746094 18.99820313 3.49804688 20.28515625 C3.49740234 21.48011719 3.49675781 22.67507812 3.49609375 23.90625 C3.49794678 25.00259766 3.4997998 26.09894531 3.50170898 27.22851562 C3 30 3 30 1.13305664 31.88867188 C-1 33 -1 33 -3.625 32.875 C-6 32 -6 32 -8 29 C-8.44271404 24.68068502 -8.3241403 20.33950474 -8.3125 16 C-8.32861328 14.79859375 -8.34472656 13.5971875 -8.36132812 12.359375 C-8.36197266 11.20953125 -8.36261719 10.0596875 -8.36328125 8.875 C-8.36626221 7.82054688 -8.36924316 6.76609375 -8.37231445 5.6796875 C-8 3 -8 3 -6.63354492 1.15625 C-4.29432337 -0.49948954 -2.79867378 -0.41980107 0 0 Z " fill="#FEF7FB" transform="translate(112,70)"/>
<path d="M0 0 C2.9375 0.375 2.9375 0.375 4.9375 2.375 C5.3971469 6.66953207 5.26149779 10.99622818 5.25 15.3125 C5.26611328 16.51841797 5.28222656 17.72433594 5.29882812 18.96679688 C5.29947266 20.12115234 5.30011719 21.27550781 5.30078125 22.46484375 C5.30376221 23.52566162 5.30674316 24.58647949 5.30981445 25.67944336 C4.9375 28.375 4.9375 28.375 3.60620117 30.25219727 C1.9375 31.375 1.9375 31.375 -1.125 31.25 C-4.0625 30.375 -4.0625 30.375 -6.0625 27.375 C-6.49925952 23.57693923 -6.38668333 19.75794901 -6.375 15.9375 C-6.39111328 14.88755859 -6.40722656 13.83761719 -6.42382812 12.75585938 C-6.42447266 11.74458984 -6.42511719 10.73332031 -6.42578125 9.69140625 C-6.42876221 8.76787354 -6.43174316 7.84434082 -6.43481445 6.89282227 C-5.79348407 2.55574667 -4.39115682 0.53769267 0 0 Z " fill="#FEF9FD" transform="translate(154.0625,75.625)"/>
<path d="M0 0 C4.42642133 3.4785795 7.79457039 7.60813767 10.13671875 12.74609375 C10.44921875 15.74609375 10.44921875 15.74609375 10.13671875 17.74609375 C9.14671875 17.08609375 8.15671875 16.42609375 7.13671875 15.74609375 C6.44921875 12.12109375 6.44921875 12.12109375 6.13671875 8.74609375 C5.47671875 8.74609375 4.81671875 8.74609375 4.13671875 8.74609375 C3.64171875 7.75609375 3.64171875 7.75609375 3.13671875 6.74609375 C2.49734375 6.47796875 1.85796875 6.20984375 1.19921875 5.93359375 C-1.54484833 4.35367634 -1.93218249 2.69457315 -2.86328125 -0.25390625 C-3.94609375 -0.22296875 -3.94609375 -0.22296875 -5.05078125 -0.19140625 C-7.78253263 -0.25211184 -10.20584216 -0.6464916 -12.86328125 -1.25390625 C-12.86328125 -1.91390625 -12.86328125 -2.57390625 -12.86328125 -3.25390625 C-14.81520761 -2.74909771 -16.76709534 -2.2441392 -18.71875 -1.73828125 C-20.86328125 -1.25390625 -20.86328125 -1.25390625 -23.80078125 -1.06640625 C-29.80858366 0.52750051 -34.60668224 5.3408516 -38.86328125 9.74609375 C-38.53328125 10.73609375 -38.20328125 11.72609375 -37.86328125 12.74609375 C-38.85328125 13.40609375 -39.84328125 14.06609375 -40.86328125 14.74609375 C-42.4666088 21.09694653 -41.91874533 28.11419507 -41.80078125 34.62109375 C-41.60731276 54.00663682 -42.89195489 73.39189934 -43.86328125 92.74609375 C-44.19328125 92.74609375 -44.52328125 92.74609375 -44.86328125 92.74609375 C-44.93305505 83.53120512 -44.98623069 74.31640863 -45.01871777 65.10131264 C-45.03431667 60.82151526 -45.05544822 56.54189977 -45.08959961 52.26220703 C-45.12240064 48.12544361 -45.1401776 43.9888542 -45.14791298 39.85197067 C-45.15341951 38.28045288 -45.16417162 36.70894367 -45.18047142 35.13750076 C-45.29198871 23.93189142 -45.04892301 13.65770972 -37.67578125 4.5703125 C-27.65362879 -5.51663836 -12.15377262 -8.1789539 0 0 Z " fill="#D288C0" transform="translate(114.86328125,39.25390625)"/>
<path d="M0 0 C0.9075 0.37125 1.815 0.7425 2.75 1.125 C2.80785647 5.08327235 2.84354717 9.0414367 2.875 13 C2.89175781 14.12792969 2.90851562 15.25585938 2.92578125 16.41796875 C2.93222656 17.49433594 2.93867187 18.57070312 2.9453125 19.6796875 C2.95578613 20.67468262 2.96625977 21.66967773 2.97705078 22.69482422 C2.75 25.125 2.75 25.125 0.75 27.125 C-2.25 27.375 -2.25 27.375 -5.25 27.125 C-7.25 25.125 -7.25 25.125 -7.47705078 22.69482422 C-7.46657715 21.6998291 -7.45610352 20.70483398 -7.4453125 19.6796875 C-7.43886719 18.60332031 -7.43242188 17.52695313 -7.42578125 16.41796875 C-7.40902344 15.29003906 -7.39226563 14.16210938 -7.375 13 C-7.36597656 11.86433594 -7.35695312 10.72867188 -7.34765625 9.55859375 C-7.32403098 6.74718701 -7.29109013 3.93619702 -7.25 1.125 C-4.16500609 -0.68575729 -3.64851706 -0.98229305 0 0 Z " fill="#FEFCFE" transform="translate(45.25,77.875)"/>
<path d="M0 0 C0 0.66 0 1.32 0 2 C3.465 1.505 3.465 1.505 7 1 C7 1.99 7 2.98 7 4 C9.31 4 11.62 4 14 4 C14.495 5.485 14.495 5.485 15 7 C15.62777344 7.1546875 16.25554687 7.309375 16.90234375 7.46875 C19.62372932 8.15796497 20.10716293 9.1560908 21.5625 11.5 C23.49172223 14.62237376 23.49172223 14.62237376 27 16 C26.505 17.485 26.505 17.485 26 19 C25.56429687 18.62488281 25.12859375 18.24976562 24.6796875 17.86328125 C23.42932275 16.78883362 22.17514639 15.71881181 20.91796875 14.65234375 C19.30738413 13.26481362 17.74161117 11.82550376 16.1875 10.375 C7.87323908 4.18006049 -1.80144179 2.07875619 -12 3 C-23.06771738 5.46418644 -31.40972303 10.36646194 -38.39453125 19.265625 C-43.28911815 27.60190439 -44.59873289 34.97575198 -44.609375 44.5703125 C-44.62591125 45.73255341 -44.64244751 46.89479431 -44.65948486 48.09225464 C-44.70770176 51.7698916 -44.72927817 55.44711582 -44.75 59.125 C-44.77818154 61.63283297 -44.80811199 64.14064694 -44.83984375 66.6484375 C-44.91345373 72.76555072 -44.96524994 78.88254912 -45 85 C-45.33 85 -45.66 85 -46 85 C-46.02533375 77.24040422 -46.04286004 69.48081908 -46.05493164 61.72119141 C-46.05996357 59.08088787 -46.06678971 56.44058713 -46.07543945 53.80029297 C-46.08755479 50.00747998 -46.0932397 46.2147038 -46.09765625 42.421875 C-46.10281754 41.23946228 -46.10797882 40.05704956 -46.11329651 38.83880615 C-46.11340981 37.1875473 -46.11340981 37.1875473 -46.11352539 35.50292969 C-46.115746 34.53474304 -46.11796661 33.5665564 -46.12025452 32.56903076 C-46 30 -46 30 -45.43040466 27.84356689 C-44.78039901 25.7860874 -44.78039901 25.7860874 -46 23 C-44.71034824 21.62437146 -43.37310707 20.29233607 -42 19 C-41.34 19 -40.68 19 -40 19 C-40 18.34 -40 17.68 -40 17 C-39.34 17 -38.68 17 -38 17 C-37.731875 16.236875 -37.46375 15.47375 -37.1875 14.6875 C-36.03664629 12.08293633 -35.10432452 10.84128395 -33 9 C-32.34 8.34 -31.68 7.68 -31 7 C-29.35767228 6.27544365 -27.68375165 5.62225605 -26 5 C-25.06220703 4.64228516 -25.06220703 4.64228516 -24.10546875 4.27734375 C-22.72612589 3.75250775 -21.34316775 3.23709007 -19.95703125 2.73046875 C-18.36973371 2.1380044 -16.80543918 1.48416692 -15.25 0.8125 C-10.20584103 -0.44853974 -5.17228974 -0.15064922 0 0 Z " fill="#C282D6" transform="translate(105,21)"/>
<path d="M0 0 C2.94987894 0.51622881 3.67125155 1.1223684 5.5 3.4375 C5.88818359 5.39868164 5.88818359 5.39868164 5.8984375 7.59765625 C5.90230469 8.39107422 5.90617188 9.18449219 5.91015625 10.00195312 C5.89855469 10.82630859 5.88695312 11.65066406 5.875 12.5 C5.88660156 13.32822266 5.89820313 14.15644531 5.91015625 15.00976562 C5.90628906 15.80189453 5.90242187 16.59402344 5.8984375 17.41015625 C5.89505371 18.13468994 5.89166992 18.85922363 5.88818359 19.60571289 C5.5 21.4375 5.5 21.4375 2.5 23.4375 C-0.20005188 23.77500648 -1.79983882 23.87635701 -4.1328125 22.4140625 C-6.26352203 19.3336653 -5.93315134 16.1086139 -5.875 12.5 C-5.88660156 11.78392578 -5.89820312 11.06785156 -5.91015625 10.33007812 C-5.89225475 7.11079105 -5.70115451 4.80187702 -4.1328125 1.9609375 C-2.5 0.4375 -2.5 0.4375 0 0 Z " fill="#FEF8F9" transform="translate(131.5,119.5625)"/>
<path d="M0 0 C0.33 0 0.66 0 1 0 C1.01458252 1.22630127 1.02916504 2.45260254 1.04418945 3.71606445 C1.10212083 8.26177266 1.17935381 12.80698281 1.26245117 17.35229492 C1.29572486 19.32031171 1.32374915 21.28842449 1.34643555 23.2565918 C1.37993678 26.08423812 1.43224963 28.91100282 1.48828125 31.73828125 C1.49467117 32.61962234 1.5010611 33.50096344 1.50764465 34.40901184 C1.53733589 35.6399482 1.53733589 35.6399482 1.56762695 36.89575195 C1.57873001 37.61745071 1.58983307 38.33914948 1.60127258 39.0827179 C2.11673364 41.56131412 2.99253041 42.49429958 5 44 C8.31818985 43.75794651 8.31818985 43.75794651 11 42 C11.23718743 38.3894803 11.39655681 34.78580251 11.51757812 31.16992188 C11.78671875 25.21328125 11.78671875 25.21328125 14 23 C19.25709356 22.44073473 19.25709356 22.44073473 21.67012024 24.25727844 C23.31622594 26.41439367 23.36481905 27.50508517 23.34057617 30.19604492 C23.34034958 31.03668991 23.34012299 31.8773349 23.33988953 32.74345398 C23.32440567 33.64666885 23.30892181 34.54988373 23.29296875 35.48046875 C23.28872391 36.40845779 23.28447906 37.33644684 23.28010559 38.29255676 C23.26330662 41.25783243 23.22565216 44.2224296 23.1875 47.1875 C23.17245474 49.19725581 23.15876606 51.20702227 23.14648438 53.21679688 C23.11339908 58.14479286 23.06160833 63.07228138 23 68 C22.67 68 22.34 68 22 68 C21.67 54.47 21.34 40.94 21 27 C19.35 27.33 17.7 27.66 16 28 C14.99995403 31.0001379 14.83657735 33.2983569 14.6875 36.4375 C14.38420768 39.96968906 14.23965874 41.6405119 12.25 44.625 C9.65364601 46.21166077 8.0554235 46.92547748 5 47 C2.37036133 46.1237793 2.37036133 46.1237793 0 44 C-0.72921554 40.70139093 -0.57994017 37.44543965 -0.48828125 34.08203125 C-0.48120651 33.10965012 -0.47413177 32.13726898 -0.46684265 31.13542175 C-0.43883408 28.02700138 -0.37608275 24.92037666 -0.3125 21.8125 C-0.28742553 19.70640621 -0.26461088 17.6002842 -0.24414062 15.49414062 C-0.18898599 10.32873429 -0.10266795 5.16467165 0 0 Z " fill="#D76672" transform="translate(81,106)"/>
<path d="M0 0 C0.66 0 1.32 0 2 0 C1.65962258 10.21132256 -2.66534571 19.8320424 -10 27 C-17.96380608 33.2786321 -24.83732868 37.1085376 -35 38 C-34.67 37.01 -34.34 36.02 -34 35 C-33.21625 34.9175 -32.4325 34.835 -31.625 34.75 C-28.85250896 34.27193661 -28.85250896 34.27193661 -27.6875 31.9375 C-27.460625 31.298125 -27.23375 30.65875 -27 30 C-26.67 30.99 -26.34 31.98 -26 33 C-24.51746733 32.38302681 -23.03904826 31.75616104 -21.5625 31.125 C-20.73878906 30.77695313 -19.91507813 30.42890625 -19.06640625 30.0703125 C-16.84253285 29.1755063 -16.84253285 29.1755063 -16 27 C-15.01 26.67 -14.02 26.34 -13 26 C-11.9935725 24.33720673 -10.99414593 22.67016516 -10 21 C-9.319375 20.54625 -8.63875 20.0925 -7.9375 19.625 C-5.62839728 17.6883332 -5.25077209 16.06008203 -4.5703125 13.18359375 C-3.39490477 8.68323129 -1.62237821 4.35521917 0 0 Z " fill="#E95E49" transform="translate(198,162)"/>
<path d="M0 0 C-5.5 4 -5.5 4 -10 4 C-14.95360919 5.37600255 -19.24391723 8.55107353 -23 12 C-23.33 12.99 -23.66 13.98 -24 15 C-24.8971875 15.12375 -24.8971875 15.12375 -25.8125 15.25 C-28.89010385 16.30517846 -29.6690853 18.3740694 -31.1171875 21.15625 C-33.38227051 25.87295473 -33.38227051 25.87295473 -34 31 C-34.99 31.66 -35.98 32.32 -37 33 C-36.4246212 24.17752512 -32.22304204 16.22304204 -26 10 C-8.17689769 -4.08844884 -8.17689769 -4.08844884 0 0 Z " fill="#BE85E6" transform="translate(38,1)"/>
<path d="M0 0 C0.66 0.33 1.32 0.66 2 1 C1.48050781 1.51046875 0.96101563 2.0209375 0.42578125 2.546875 C-0.27160156 3.27390625 -0.96898438 4.0009375 -1.6875 4.75 C-2.37199219 5.44609375 -3.05648437 6.1421875 -3.76171875 6.859375 C-9.95451517 15.5487438 -11.74462836 24.2744418 -11.70703125 34.765625 C-11.72971321 36.50474152 -11.72971321 36.50474152 -11.75285339 38.2789917 C-11.79540668 41.93619734 -11.80453753 45.59257247 -11.8125 49.25 C-11.8356693 51.7487195 -11.86103963 54.24741962 -11.88867188 56.74609375 C-11.9512044 62.83073732 -11.9863948 68.9150606 -12 75 C-12.33 75 -12.66 75 -13 75 C-13.02533375 67.24040422 -13.04286004 59.48081908 -13.05493164 51.72119141 C-13.05996357 49.08088787 -13.06678971 46.44058713 -13.07543945 43.80029297 C-13.08755479 40.00747998 -13.0932397 36.2147038 -13.09765625 32.421875 C-13.10281754 31.23946228 -13.10797882 30.05704956 -13.11329651 28.83880615 C-13.11340981 27.1875473 -13.11340981 27.1875473 -13.11352539 25.50292969 C-13.115746 24.53474304 -13.11796661 23.5665564 -13.12025452 22.56903076 C-13 20 -13 20 -12.43040466 17.84356689 C-11.78039901 15.7860874 -11.78039901 15.7860874 -13 13 C-11.71034824 11.62437146 -10.37310707 10.29233607 -9 9 C-8.34 9 -7.68 9 -7 9 C-7 8.34 -7 7.68 -7 7 C-6.34 7 -5.68 7 -5 7 C-4.731875 6.21625 -4.46375 5.4325 -4.1875 4.625 C-3 2 -3 2 0 0 Z " fill="#C77CB8" transform="translate(72,31)"/>
<path d="M0 0 C7.9476129 -0.50855261 15.0511663 3.54134204 21.3125 8.25 C27.64804255 14.73288075 33.74459658 22.63652813 34.1875 31.9375 C34.125625 32.948125 34.06375 33.95875 34 35 C33.34 35 32.68 35 32 35 C31.505 32.525 31.505 32.525 31 30 C30.34 30 29.68 30 29 30 C29.21011719 29.44699219 29.42023438 28.89398437 29.63671875 28.32421875 C30.12716989 25.18638622 29.22942961 23.62558313 27.8125 20.8125 C27.38582031 19.93207031 26.95914063 19.05164063 26.51953125 18.14453125 C25.18769258 15.83601305 25.18769258 15.83601305 22.82421875 15.19921875 C22.22222656 15.13347656 21.62023437 15.06773438 21 15 C20.91878906 14.39414063 20.83757812 13.78828125 20.75390625 13.1640625 C19.76171371 10.31600724 18.54597416 9.80114989 15.9375 8.375 C13.71484375 7.1484375 13.71484375 7.1484375 12 6 C12 5.34 12 4.68 12 4 C10.35 4.33 8.7 4.66 7 5 C6.67 4.34 6.34 3.68 6 3 C5.01 3 4.02 3 3 3 C1.3125 1.5 1.3125 1.5 0 0 Z " fill="#BB85E3" transform="translate(165,1)"/>
<path d="M0 0 C6.625 0.75 6.625 0.75 10 3 C11.89078003 11.82364016 10.62624996 21.06871204 10 30 C9.67 30 9.34 30 9 30 C8.98018066 29.25314941 8.96036133 28.50629883 8.93994141 27.73681641 C8.84491789 24.36584395 8.73514741 20.99551071 8.625 17.625 C8.5940625 16.449375 8.563125 15.27375 8.53125 14.0625 C8.49257812 12.94101563 8.45390625 11.81953125 8.4140625 10.6640625 C8.3826416 9.62717285 8.3512207 8.5902832 8.31884766 7.52197266 C8.24045528 4.83190165 8.24045528 4.83190165 6 3 C3.5 2.66666667 3.5 2.66666667 1 3 C-1.29261997 4.86089721 -1.29261997 4.86089721 -1.22705078 7.79736328 C-1.21134033 9.54122314 -1.21134033 9.54122314 -1.1953125 11.3203125 C-1.18886719 12.57714844 -1.18242188 13.83398438 -1.17578125 15.12890625 C-1.15902344 16.44761719 -1.14226562 17.76632813 -1.125 19.125 C-1.11496983 20.46483721 -1.10584404 21.80468152 -1.09765625 23.14453125 C-1.07402075 26.42986573 -1.04107234 29.71484465 -1 33 C-1.66 32.67 -2.32 32.34 -3 32 C-3.08704 27.41678618 -3.14040632 22.83378466 -3.1875 18.25 C-3.21263672 16.94804688 -3.23777344 15.64609375 -3.26367188 14.3046875 C-3.27333984 13.05429688 -3.28300781 11.80390625 -3.29296875 10.515625 C-3.31653442 8.78747559 -3.31653442 8.78747559 -3.34057617 7.02441406 C-2.9698672 3.73241214 -2.22615202 2.39304923 0 0 Z " fill="#CB79A6" transform="translate(106,68)"/>
<path d="M0 0 C1.5 1.3125 1.5 1.3125 3 3 C3 3.99 3 4.98 3 6 C3.66 6 4.32 6 5 6 C6.9941996 13.38126098 7.19269666 20.07394486 6.9765625 27.69140625 C6.95153656 28.87725815 6.92651062 30.06311005 6.90072632 31.28489685 C6.81905063 35.04441166 6.72225859 38.8033593 6.625 42.5625 C6.5667069 45.12302427 6.50940484 47.68357131 6.453125 50.24414062 C6.31355023 56.49640285 6.16158801 62.74827002 6 69 C5.67 69 5.34 69 5 69 C4.99453156 67.96215866 4.99453156 67.96215866 4.98895264 66.90335083 C4.95088846 60.34279551 4.89382999 53.78270193 4.81609726 47.22249031 C4.77679765 43.85078272 4.74452465 40.47932942 4.72900391 37.10742188 C4.70746888 33.21963103 4.66076058 29.3328098 4.609375 25.4453125 C4.60814636 24.25011993 4.60691772 23.05492737 4.60565186 21.82351685 C4.49056299 15.16734798 3.6810227 9.96774864 0.85357666 3.91012573 C0 2 0 2 0 0 Z " fill="#D599B8" transform="translate(132,42)"/>
<path d="M0 0 C2 2 2 2 2.13525391 5.80712891 C2.09287412 7.44724562 2.03919625 9.08709433 1.9765625 10.7265625 C1.95153656 11.58937836 1.92651062 12.45219421 1.90072632 13.34115601 C1.81841184 16.10283029 1.72186733 18.86380152 1.625 21.625 C1.56677209 23.49476275 1.50946857 25.36455452 1.453125 27.234375 C1.3128161 31.8233226 1.15974165 36.4116894 1 41 C1.66 41.33 2.32 41.66 3 42 C2.34 42 1.68 42 1 42 C1 43.32 1 44.64 1 46 C-2.08888522 48.05925681 -2.70935927 48.2390374 -6.1875 48.125 C-7.445625 48.08375 -8.70375 48.0425 -10 48 C-10.33 47.34 -10.66 46.68 -11 46 C-9.906875 46.0825 -8.81375 46.165 -7.6875 46.25 C-4.1051884 46.36967405 -4.1051884 46.36967405 -2.30151367 44.58300781 C-0.30592162 40.62251937 -0.51943274 36.79997269 -0.48828125 32.421875 C-0.47033005 31.4953009 -0.45237885 30.56872681 -0.43388367 29.61407471 C-0.37977299 26.6594292 -0.34588243 23.70494531 -0.3125 20.75 C-0.2793276 18.74476917 -0.24483802 16.73955968 -0.20898438 14.734375 C-0.12404598 9.82303326 -0.05723827 4.91173952 0 0 Z " fill="#E35E5E" transform="translate(116,129)"/>
<path d="M0 0 C0.33 0 0.66 0 1 0 C1 11.55 1 23.1 1 35 C2.98 35 4.96 35 7 35 C9.39763185 32.60236815 9.34280586 31.66726502 9.625 28.375 C9.69976562 27.55773437 9.77453125 26.74046875 9.8515625 25.8984375 C9.90054688 25.27195312 9.94953125 24.64546875 10 24 C10.33 24 10.66 24 11 24 C11.08114106 25.77007714 11.13925505 27.54122098 11.1875 29.3125 C11.22230469 30.29863281 11.25710937 31.28476563 11.29296875 32.30078125 C11 35 11 35 9.6796875 36.8359375 C7.1105353 38.61641972 5.0339552 38.32276119 2 38 C0 36 0 36 -0.22705078 32.46826172 C-0.22673363 30.95536669 -0.21540633 29.44244912 -0.1953125 27.9296875 C-0.1924826 27.13345978 -0.18965271 26.33723206 -0.18673706 25.51687622 C-0.1755264 22.96943237 -0.15042062 20.42233789 -0.125 17.875 C-0.11497133 16.14974465 -0.10584528 14.42448381 -0.09765625 12.69921875 C-0.07558422 8.46601086 -0.04104867 4.2330647 0 0 Z " fill="#CB7598" transform="translate(93,85)"/>
<path d="M0 0 C3.72617422 1.24205807 5.39291457 3.1110675 8 6 C8 6.66 8 7.32 8 8 C11.08511746 9.29375893 14.1955257 10.40485023 17.375 11.4375 C21.36384456 12.74707041 25.16794239 14.28780405 29 16 C23.32989758 17.89003414 17.95614992 15.11237698 12.8125 12.625 C7.60709545 9.90254148 3.19712711 7.04809543 0 2 C0 1.34 0 0.68 0 0 Z " fill="#E96149" transform="translate(9,183)"/>
<path d="M0 0 C1.32 1.32 2.64 2.64 4 4 C2.865625 4.28875 1.73125 4.5775 0.5625 4.875 C-0.613125 5.24625 -1.78875 5.6175 -3 6 C-4.3308911 8.66178221 -4.11268993 10.68739396 -4.09765625 13.6640625 C-4.09443359 14.78554687 -4.09121094 15.90703125 -4.08789062 17.0625 C-4.07951172 18.238125 -4.07113281 19.41375 -4.0625 20.625 C-4.05798828 21.80835937 -4.05347656 22.99171875 -4.04882812 24.2109375 C-4.03701467 27.14067507 -4.02054258 30.07031272 -4 33 C-4.66 32.67 -5.32 32.34 -6 32 C-6.33 23.09 -6.66 14.18 -7 5 C-5.02 4.01 -3.04 3.02 -1 2 C-0.67 1.34 -0.34 0.68 0 0 Z " fill="#C9709C" transform="translate(153,72)"/>
<path d="M0 0 C0.66 0 1.32 0 2 0 C1.72876813 8.13695602 -1.08916501 13.93179365 -5 21 C-7.16387838 14.50836486 -2.29630701 6.16435813 0 0 Z " fill="#E66259" transform="translate(198,162)"/>
<path d="M0 0 C1.258125 -0.04125 2.51625 -0.0825 3.8125 -0.125 C4.52019531 -0.14820312 5.22789063 -0.17140625 5.95703125 -0.1953125 C8 0 8 0 11 2 C10.67 2.66 10.34 3.32 10 4 C9.34 3.67 8.68 3.34 8 3 C4.95826106 2.83329727 4.95826106 2.83329727 2 3 C0.38219843 4.61780157 0.77727853 6.45635518 0.68359375 8.69140625 C0.62075195 10.10776367 0.62075195 10.10776367 0.55664062 11.55273438 C0.51732422 12.54595703 0.47800781 13.53917969 0.4375 14.5625 C0.39431641 15.55958984 0.35113281 16.55667969 0.30664062 17.58398438 C0.20019702 20.0558415 0.09818072 22.5278031 0 25 C-0.33 25 -0.66 25 -1 25 C-1.02900455 21.3958502 -1.04680018 17.79173038 -1.0625 14.1875 C-1.07087891 13.16333984 -1.07925781 12.13917969 -1.08789062 11.08398438 C-1.09111328 10.10107422 -1.09433594 9.11816406 -1.09765625 8.10546875 C-1.10289307 7.19949951 -1.10812988 6.29353027 -1.11352539 5.36010742 C-1 3 -1 3 0 0 Z " fill="#CD779F" transform="translate(82,81)"/>
<path d="M0 0 C0.33 0 0.66 0 1 0 C1.2545727 3.93629132 1.47429232 7.87376868 1.6875 11.8125 C1.76033203 12.93205078 1.83316406 14.05160156 1.90820312 15.20507812 C1.96298828 16.27822266 2.01777344 17.35136719 2.07421875 18.45703125 C2.13182373 19.44678955 2.18942871 20.43654785 2.2487793 21.45629883 C2 24 2 24 0.62304688 25.84179688 C-1 27 -1 27 -3.04296875 27.07421875 C-6.02148438 26.53710938 -6.02148438 26.53710938 -9 26 C-9 25.01 -9 24.02 -9 23 C-8.67 23.33 -8.34 23.66 -8 24 C-5 24.16666667 -5 24.16666667 -2 24 C-0.31699331 22.31699331 -0.77190923 20.17991273 -0.68359375 17.87109375 C-0.64169922 16.83662109 -0.59980469 15.80214844 -0.55664062 14.73632812 C-0.51732422 13.64771484 -0.47800781 12.55910156 -0.4375 11.4375 C-0.39431641 10.34501953 -0.35113281 9.25253906 -0.30664062 8.12695312 C-0.20017932 5.41810436 -0.09816484 2.70916008 0 0 Z " fill="#DA86A6" transform="translate(48,80)"/>
<path d="M0 0 C3.75007118 2.50004745 3.65875671 3.70334617 4.5625 8 C5.37399183 12.47946876 5.37399183 12.47946876 8 16 C8.625 18.125 8.625 18.125 9 20 C5.3009116 18.76697053 5.08217796 17.89340895 3.375 14.5 C1.00954819 9.57019952 0.26298856 5.4350969 0 0 Z " fill="#E66159" transform="translate(0,162)"/>
<path d="M0 0 C-0.33 0.66 -0.66 1.32 -1 2 C-1.763125 1.814375 -2.52625 1.62875 -3.3125 1.4375 C-6.08967375 0.77180827 -6.08967375 0.77180827 -9 2 C-9.33 9.26 -9.66 16.52 -10 24 C-10.33 24 -10.66 24 -11 24 C-11.33 15.75 -11.66 7.5 -12 -1 C-7.03429151 -2.24142712 -4.84452938 -1.37261666 0 0 Z " fill="#D583AE" transform="translate(48,77)"/>
<path d="M0 0 C0.33 0 0.66 0 1 0 C1.02907084 3.58331625 1.04682263 7.16660208 1.0625 10.75 C1.07087891 11.76578125 1.07925781 12.7815625 1.08789062 13.828125 C1.09111328 14.8078125 1.09433594 15.7875 1.09765625 16.796875 C1.10289307 17.69760742 1.10812988 18.59833984 1.11352539 19.52636719 C1.00565083 21.87687264 0.82255531 23.7954658 0 26 C-2.5625 27.25 -2.5625 27.25 -5 28 C-4.67 26.68 -4.34 25.36 -4 24 C-3.34 24 -2.68 24 -2 24 C-1.97494385 23.41508789 -1.9498877 22.83017578 -1.92407227 22.22753906 C-1.80777038 19.56815529 -1.68519933 16.90909597 -1.5625 14.25 C-1.52318359 13.32960938 -1.48386719 12.40921875 -1.44335938 11.4609375 C-1.40146484 10.57148437 -1.35957031 9.68203125 -1.31640625 8.765625 C-1.27974854 7.94868164 -1.24309082 7.13173828 -1.20532227 6.29003906 C-1.00865725 4.0965577 -0.59699406 2.11603587 0 0 Z " fill="#D36D9B" transform="translate(117,76)"/>
<path d="M0 0 C0.66 0 1.32 0 2 0 C1.67 0.99 1.34 1.98 1 3 C0.91856145 4.62719482 0.8924698 6.25751719 0.90234375 7.88671875 C0.90556641 8.82451172 0.90878906 9.76230469 0.91210938 10.72851562 C0.92467773 12.19321289 0.92467773 12.19321289 0.9375 13.6875 C0.94201172 14.67556641 0.94652344 15.66363281 0.95117188 16.68164062 C0.96295697 19.12115474 0.97940989 21.56054689 1 24 C2.98 24.66 4.96 25.32 7 26 C7 26.33 7 26.66 7 27 C4.125 27.125 4.125 27.125 1 27 C-1 25 -1 25 -1.24291992 22.58569336 C-1.23881104 21.59706299 -1.23470215 20.60843262 -1.23046875 19.58984375 C-1.22853516 18.51798828 -1.22660156 17.44613281 -1.22460938 16.34179688 C-1.21236328 15.21837891 -1.20011719 14.09496094 -1.1875 12.9375 C-1.18685547 11.81021484 -1.18621094 10.68292969 -1.18554688 9.52148438 C-1.14013317 1.14013317 -1.14013317 1.14013317 0 0 Z " fill="#FEEBF9" transform="translate(39,78)"/>
<path d="M0 0 C3 3 3 3 3.14453125 6.3203125 C3.03496094 7.57585937 2.92539063 8.83140625 2.8125 10.125 C2.71582031 11.38570312 2.61914062 12.64640625 2.51953125 13.9453125 C2.34808594 14.95335937 2.17664063 15.96140625 2 17 C1.34 17.33 0.68 17.66 0 18 C0 12.06 0 6.12 0 0 Z " fill="#DC7588" transform="translate(137,121)"/>
<path d="M0 0 C0.66 0.33 1.32 0.66 2 1 C1.319375 2.0828125 1.319375 2.0828125 0.625 3.1875 C-1.49564434 6.85784598 -3 9.7258388 -3 14 C-3.99 14.66 -4.98 15.32 -6 16 C-5.53118166 10.37417987 -4.15551956 4.15551956 0 0 Z " fill="#C081D4" transform="translate(7,18)"/>
<path d="M0 0 C0.33 0.99 0.66 1.98 1 3 C1.66 3 2.32 3 3 3 C2.67 3.99 2.34 4.98 2 6 C-1.3 6.66 -4.6 7.32 -8 8 C-7.67 7.01 -7.34 6.02 -7 5 C-5.824375 4.87625 -5.824375 4.87625 -4.625 4.75 C-1.85250896 4.27193661 -1.85250896 4.27193661 -0.6875 1.9375 C-0.460625 1.298125 -0.23375 0.65875 0 0 Z " fill="#F05A3F" transform="translate(171,192)"/>
<path d="M0 0 C1.70840281 1.63412443 2.93453047 2.86906094 4 5 C4.04022391 7.3329866 4.04320247 9.66706666 4 12 C3.34 12 2.68 12 2 12 C1.67 10.35 1.34 8.7 1 7 C0.34 7 -0.32 7 -1 7 C-0.67 4.69 -0.34 2.38 0 0 Z " fill="#C17ED1" transform="translate(195,24)"/>
<path d="M0 0 C0.33 1.32 0.66 2.64 1 4 C-2.83325617 6.70582788 -5.32538149 7.32613618 -10 7 C-10 6.34 -10 5.68 -10 5 C-6.97265625 4.36523438 -6.97265625 4.36523438 -3.9453125 3.73046875 C-1.62953451 3.07691162 -1.62953451 3.07691162 0 0 Z " fill="#DE646F" transform="translate(138,138)"/>
<path d="M0 0 C0.33 0 0.66 0 1 0 C1.08114106 1.77007714 1.13925505 3.54122098 1.1875 5.3125 C1.22230469 6.29863281 1.25710937 7.28476563 1.29296875 8.30078125 C1 11 1 11 -0.34375 12.84375 C-2.60983805 14.425736 -4.3025585 14.21871147 -7 14 C-6.195625 13.360625 -5.39125 12.72125 -4.5625 12.0625 C-1.59354978 9.99231728 -1.59354978 9.99231728 -0.68359375 6.93359375 C-0.60238281 6.10988281 -0.52117187 5.28617187 -0.4375 4.4375 C-0.35371094 3.61121094 -0.26992187 2.78492187 -0.18359375 1.93359375 C-0.12300781 1.29550781 -0.06242187 0.65742187 0 0 Z " fill="#CE6C86" transform="translate(103,109)"/>
<path d="M0 0 C1.5 1.3125 1.5 1.3125 3 3 C3 3.99 3 4.98 3 6 C3.66 6 4.32 6 5 6 C5.38909985 7.45463481 5.76088029 8.91391207 6.125 10.375 C6.33382812 11.18710937 6.54265625 11.99921875 6.7578125 12.8359375 C6.83773437 13.55007812 6.91765625 14.26421875 7 15 C6.34 15.66 5.68 16.32 5 17 C4.35284867 14.9170757 3.70732834 12.83364461 3.0625 10.75 C2.70285156 9.58984375 2.34320313 8.4296875 1.97265625 7.234375 C1.24933363 4.82910942 0.57457589 2.44345956 0 0 Z " fill="#C681C1" transform="translate(132,42)"/>
<path d="M0 0 C3.29696105 1.09898702 4.04670589 1.94597387 6.1875 4.5625 C6.71730469 5.20316406 7.24710938 5.84382812 7.79296875 6.50390625 C8.19128906 6.99761719 8.58960938 7.49132812 9 8 C8.67 8.66 8.34 9.32 8 10 C4.82537057 7.59757773 2.14248259 5.38286724 0 2 C0 1.34 0 0.68 0 0 Z " fill="#E76653" transform="translate(9,183)"/>
<path d="M0 0 C0.33 0.99 0.66 1.98 1 3 C0.34 3.66 -0.32 4.32 -1 5 C-0.67 5.99 -0.34 6.98 0 8 C-1.65 8.66 -3.3 9.32 -5 10 C-3.84414715 6.08788267 -2.64465038 3.1254959 0 0 Z " fill="#C680BF" transform="translate(77,44)"/>
<path d="M0 0 C0.33 0 0.66 0 1 0 C1 3.96 1 7.92 1 12 C2.98 12.495 2.98 12.495 5 13 C4.01 13.66 3.02 14.32 2 15 C0 13 0 13 -0.1953125 9.9609375 C-0.17210938 8.77757813 -0.14890625 7.59421875 -0.125 6.375 C-0.10695313 5.18648438 -0.08890625 3.99796875 -0.0703125 2.7734375 C-0.04710938 1.85820313 -0.02390625 0.94296875 0 0 Z " fill="#D2778F" transform="translate(93,108)"/>
<path d="M0 0 C1.32 1.32 2.64 2.64 4 4 C2.88625 4.28875 1.7725 4.5775 0.625 4.875 C-3.00291092 5.69241329 -3.00291092 5.69241329 -5 8 C-5 6.68 -5 5.36 -5 4 C-4.360625 3.71125 -3.72125 3.4225 -3.0625 3.125 C-0.84793921 2.17176549 -0.84793921 2.17176549 0 0 Z " fill="#D07DAE" transform="translate(153,72)"/>
</svg>
