<?xml version="1.0" standalone="no"?><!DOCTYPE svg PUBLIC "-//W3C//DTD SVG 1.1//EN" "http://www.w3.org/Graphics/SVG/1.1/DTD/svg11.dtd"><svg t="1729590702873" class="icon" viewBox="0 0 1024 1024" version="1.1" xmlns="http://www.w3.org/2000/svg" p-id="3741" xmlns:xlink="http://www.w3.org/1999/xlink" width="200" height="200"><path d="M461.397333 147.114667L334.890667 352.298667a42.666667 42.666667 0 0 0-4.608 10.282666H200.533333a85.333333 85.333333 0 0 0-85.333333 85.333334v341.333333a85.333333 85.333333 0 0 0 85.333333 85.333333h534.314667a85.333333 85.333333 0 0 0 81.536-60.245333l118.186667-384a85.333333 85.333333 0 0 0-81.578667-110.421333H669.866667a42.666667 42.666667 0 0 1-42.666667-42.666667v-85.333333a85.333333 85.333333 0 0 0-85.333333-85.333334h-7.850667a85.333333 85.333333 0 0 0-72.618667 40.533334zM288 426.666667h64v384h-64v-384z" p-id="3742"></path></svg>